<?xml version="1.0" standalone="no"?><!DOCTYPE svg PUBLIC "-//W3C//DTD SVG 1.1//EN" "http://www.w3.org/Graphics/SVG/1.1/DTD/svg11.dtd"><svg t="1690441618545" class="icon" viewBox="0 0 1024 1024" version="1.1" xmlns="http://www.w3.org/2000/svg" p-id="5690" xmlns:xlink="http://www.w3.org/1999/xlink" width="200" height="200"><path d="M509.447363 72.465428c-246.394736 0-446.137966 199.701275-446.137966 446.045869s199.742207 446.046892 446.137966 446.046892c246.393713 0 446.136943-199.702298 446.136943-446.046892S755.841076 72.465428 509.447363 72.465428zM343.451748 482.562551l6.269797-6.27082c11.328-11.328 29.694299-11.328 41.022299 0l87.441515 91.049692 0.393973-297.822013c0-16.020882 12.986779-29.007661 29.008684-29.007661l8.867972 0c16.018835 0 29.006637 12.985756 29.006637 29.007661L545.067628 563.498908l86.128613-86.784552c11.328-11.328 29.695323-11.328 41.022299 0l6.27082 6.27082c11.328 11.326976 11.328 29.694299 0 41.022299L531.473005 672.698982c-5.975085 5.976108-13.909801 8.79634-21.735024 8.467859-7.826246 0.327458-15.760962-2.492774-21.736047-8.467859L343.451748 523.583826C332.122725 512.255827 332.123748 493.889527 343.451748 482.562551zM687.325609 767.505231c0 16.018835-12.986779 29.006637-29.007661 29.006637l-293.932426-0.603751c-16.020882 0-29.007661-12.986779-29.007661-29.006637l0-6.943133c0-16.020882 12.985756-29.008684 29.007661-29.008684l293.932426 0.603751c16.019859 0 29.007661 12.986779 29.007661 29.008684L687.325609 767.505231z" fill="#bfbfbf" p-id="5691"></path></svg>